<?xml version="1.0" encoding="UTF-8"?>
<svg version="1.1" xmlns="http://www.w3.org/2000/svg" width="308" height="308">
<path d="M0,0 L268,1 L270,2 L270,275 L269,276 L183,276 L183,136 L136,136 L136,51 L88,51 L88,203 L138,203 L138,276 L3,276 L2,275 L1,6 L0,5 Z M187,53 L179,56 L172,62 L168,68 L166,74 L166,86 L170,94 L176,101 L187,106 L198,106 L206,103 L213,97 L213,95 L215,95 L219,87 L219,72 L214,63 L206,56 L198,53 Z " fill="#010202" transform="translate(18,17)"/>
<path d="M0,0 L268,1 L270,2 L270,275 L269,276 L183,276 L183,136 L136,136 L136,51 L88,51 L88,203 L87,203 L87,50 L137,50 L137,135 L184,135 L184,275 L268,275 L268,3 L4,3 L4,275 L137,275 L137,203 L138,203 L138,276 L3,276 L2,275 L1,6 L0,5 Z " fill="#8D8D8D" transform="translate(18,17)"/>
<path d="M0,0 L268,1 L268,2 L3,2 L3,275 L2,275 L1,6 L0,5 Z " fill="#FEFEFE" transform="translate(18,17)"/>
</svg>
